<svg width="16" height="16" viewBox="0 0 16 16" fill="none" xmlns="http://www.w3.org/2000/svg">
<path fill-rule="evenodd" clip-rule="evenodd" d="M13.7777 6.60278H1.89502C1.61902 6.60278 1.39502 6.37878 1.39502 6.10278C1.39502 5.82678 1.61902 5.60278 1.89502 5.60278H13.7777C14.0537 5.60278 14.2777 5.82678 14.2777 6.10278C14.2777 6.37878 14.0537 6.60278 13.7777 6.60278Z" fill="#4F5665"/>
<path fill-rule="evenodd" clip-rule="evenodd" d="M10.801 9.2063C10.525 9.2063 10.2983 8.9823 10.2983 8.7063C10.2983 8.4303 10.519 8.2063 10.795 8.2063H10.801C11.077 8.2063 11.301 8.4303 11.301 8.7063C11.301 8.9823 11.077 9.2063 10.801 9.2063Z" fill="#4F5665"/>
<path fill-rule="evenodd" clip-rule="evenodd" d="M7.84251 9.2063C7.56651 9.2063 7.33984 8.9823 7.33984 8.7063C7.33984 8.4303 7.56051 8.2063 7.83651 8.2063H7.84251C8.11851 8.2063 8.34251 8.4303 8.34251 8.7063C8.34251 8.9823 8.11851 9.2063 7.84251 9.2063Z" fill="#4F5665"/>
<path fill-rule="evenodd" clip-rule="evenodd" d="M4.87833 9.2063C4.60233 9.2063 4.375 8.9823 4.375 8.7063C4.375 8.4303 4.59633 8.2063 4.87233 8.2063H4.87833C5.15433 8.2063 5.37833 8.4303 5.37833 8.7063C5.37833 8.9823 5.15433 9.2063 4.87833 9.2063Z" fill="#4F5665"/>
<path fill-rule="evenodd" clip-rule="evenodd" d="M10.801 11.7975C10.525 11.7975 10.2983 11.5735 10.2983 11.2975C10.2983 11.0215 10.519 10.7975 10.795 10.7975H10.801C11.077 10.7975 11.301 11.0215 11.301 11.2975C11.301 11.5735 11.077 11.7975 10.801 11.7975Z" fill="#4F5665"/>
<path fill-rule="evenodd" clip-rule="evenodd" d="M7.84251 11.7975C7.56651 11.7975 7.33984 11.5735 7.33984 11.2975C7.33984 11.0215 7.56051 10.7975 7.83651 10.7975H7.84251C8.11851 10.7975 8.34251 11.0215 8.34251 11.2975C8.34251 11.5735 8.11851 11.7975 7.84251 11.7975Z" fill="#4F5665"/>
<path fill-rule="evenodd" clip-rule="evenodd" d="M4.87833 11.7975C4.60233 11.7975 4.375 11.5735 4.375 11.2975C4.375 11.0215 4.59633 10.7975 4.87233 10.7975H4.87833C5.15433 10.7975 5.37833 11.0215 5.37833 11.2975C5.37833 11.5735 5.15433 11.7975 4.87833 11.7975Z" fill="#4F5665"/>
<path fill-rule="evenodd" clip-rule="evenodd" d="M10.5293 3.86063C10.2533 3.86063 10.0293 3.63663 10.0293 3.36063V1.16663C10.0293 0.890626 10.2533 0.666626 10.5293 0.666626C10.8053 0.666626 11.0293 0.890626 11.0293 1.16663V3.36063C11.0293 3.63663 10.8053 3.86063 10.5293 3.86063Z" fill="#4F5665"/>
<path fill-rule="evenodd" clip-rule="evenodd" d="M5.14355 3.86063C4.86755 3.86063 4.64355 3.63663 4.64355 3.36063V1.16663C4.64355 0.890626 4.86755 0.666626 5.14355 0.666626C5.41955 0.666626 5.64355 0.890626 5.64355 1.16663V3.36063C5.64355 3.63663 5.41955 3.86063 5.14355 3.86063Z" fill="#4F5665"/>
<mask id="mask0_39_848" style="mask-type:luminance" maskUnits="userSpaceOnUse" x="1" y="1" width="14" height="14">
<path fill-rule="evenodd" clip-rule="evenodd" d="M1.3335 1.71936H14.3335V15H1.3335V1.71936Z" fill="white"/>
</mask>
<g mask="url(#mask0_39_848)">
<path fill-rule="evenodd" clip-rule="evenodd" d="M5.01416 2.71936C3.2855 2.71936 2.3335 3.64136 2.3335 5.31536V11.348C2.3335 13.0587 3.2855 14 5.01416 14H10.6528C12.3815 14 13.3335 13.076 13.3335 11.3987V5.31536C13.3362 4.49203 13.1148 3.85203 12.6755 3.41203C12.2235 2.95869 11.5268 2.71936 10.6588 2.71936H5.01416ZM10.6528 15H5.01416C2.74416 15 1.3335 13.6007 1.3335 11.348V5.31536C1.3335 3.09669 2.74416 1.71936 5.01416 1.71936H10.6588C11.7982 1.71936 12.7402 2.06069 13.3835 2.70536C14.0082 3.33269 14.3368 4.23469 14.3335 5.31669V11.3987C14.3335 13.62 12.9228 15 10.6528 15Z" fill="#4F5665"/>
</g>
</svg>
