<svg width="24" height="24" viewBox="0 0 24 24" fill="none" xmlns="http://www.w3.org/2000/svg">
<rect width="24" height="24" fill="#B1B1B1"/>
<g id="Desktop - Home" clip-path="url(#clip0_0_1)">
<rect width="1440" height="4363" transform="translate(-130 -1351)" fill="white"/>
<g id="Frame 25">
<g id="Frame 31">
<g id="Group 1120">
<g id="bx:bxs-check-circle">
<path id="Vector" d="M12 2C6.486 2 2 6.486 2 12C2 17.514 6.486 22 12 22C17.514 22 22 17.514 22 12C22 6.486 17.514 2 12 2ZM10.001 16.413L6.99545 13.4139C6.6047 13.024 6.60391 12.3912 6.99369 12.0003C7.38371 11.6092 8.01701 11.6085 8.40793 11.9987L9.999 13.587L14.586 9C14.9765 8.60953 15.6095 8.60953 16 9C16.3905 9.39047 16.3905 10.0235 16 10.414L10.001 16.413Z" fill="#2FAB73"/>
</g>
</g>
</g>
</g>
</g>
<defs>
<clipPath id="clip0_0_1">
<rect width="1440" height="4363" fill="white" transform="translate(-130 -1351)"/>
</clipPath>
</defs>
</svg>
