<svg width="40" height="40" viewBox="0 0 40 40" fill="none" xmlns="http://www.w3.org/2000/svg">
<circle cx="20" cy="20" r="20" fill="#E8E8E8"/>
<path d="M16.0749 27V25.912L19.3709 22.344C20.0216 21.6507 20.5389 21.08 20.9229 20.632C21.3176 20.184 21.6056 19.784 21.7869 19.432C21.9683 19.08 22.0589 18.7067 22.0589 18.312C22.0589 17.6613 21.8669 17.16 21.4829 16.808C21.0989 16.456 20.5923 16.28 19.9629 16.28C19.3229 16.28 18.7789 16.4667 18.3309 16.84C17.8829 17.2027 17.5736 17.72 17.4029 18.392L15.9789 18.024C16.1176 17.384 16.3736 16.8293 16.7469 16.36C17.1203 15.8907 17.5843 15.528 18.1389 15.272C18.6936 15.016 19.3016 14.888 19.9629 14.888C20.6883 14.888 21.3229 15.032 21.8669 15.32C22.4216 15.5973 22.8536 15.9867 23.1629 16.488C23.4829 16.9893 23.6429 17.5707 23.6429 18.232C23.6429 18.6693 23.5523 19.096 23.3709 19.512C23.1896 19.928 22.9229 20.3707 22.5709 20.84C22.2189 21.2987 21.7603 21.832 21.1949 22.44L18.2509 25.64H23.8989V27H16.0749Z" fill="#A0A3BD"/>
</svg>
