<svg width="40" height="40" viewBox="0 0 40 40" fill="none" xmlns="http://www.w3.org/2000/svg">
<circle cx="20" cy="20" r="20" fill="#E8E8E8"/>
<path d="M19.8212 27.192C19.1919 27.192 18.6052 27.08 18.0612 26.856C17.5172 26.632 17.0479 26.3173 16.6532 25.912C16.2585 25.496 15.9652 25.0053 15.7732 24.44L17.1012 23.896C17.3252 24.4933 17.6772 24.9573 18.1572 25.288C18.6372 25.6187 19.1919 25.784 19.8212 25.784C20.3119 25.784 20.7492 25.688 21.1332 25.496C21.5172 25.304 21.8159 25.0267 22.0292 24.664C22.2532 24.3013 22.3652 23.864 22.3652 23.352C22.3652 22.8293 22.2532 22.392 22.0292 22.04C21.8159 21.6773 21.5172 21.4 21.1332 21.208C20.7492 21.016 20.3065 20.92 19.8052 20.92C19.6452 20.92 19.4692 20.9307 19.2772 20.952C19.0959 20.9733 18.9412 21.0053 18.8132 21.048L18.4772 20.328L21.6612 16.44H16.3812V15.08H23.4372V16.392L20.3972 20.136L20.3012 19.72C21.0159 19.7413 21.6452 19.9067 22.1892 20.216C22.7332 20.5253 23.1599 20.9467 23.4692 21.48C23.7785 22.0027 23.9332 22.616 23.9332 23.32C23.9332 24.0453 23.7572 24.7013 23.4052 25.288C23.0532 25.8747 22.5679 26.3387 21.9492 26.68C21.3305 27.0213 20.6212 27.192 19.8212 27.192Z" fill="#A0A3BD"/>
</svg>
