<svg width="16" height="16" viewBox="0 0 16 16" fill="none" xmlns="http://www.w3.org/2000/svg">
<path d="M14.5039 13.7378L12.2123 11.4974L12.1586 11.4157C12.0587 11.3163 11.9221 11.2603 11.7796 11.2603C11.6371 11.2603 11.5005 11.3163 11.4007 11.4157C9.45315 13.2024 6.45226 13.2995 4.38817 11.6426C2.32407 9.98578 1.83728 7.08907 3.25062 4.87361C4.66396 2.65814 7.53888 1.81139 9.96873 2.89492C12.3986 3.97845 13.6294 6.65602 12.8448 9.15189C12.7883 9.3322 12.8345 9.52828 12.966 9.66627C13.0975 9.80427 13.2942 9.8632 13.4822 9.82089C13.6702 9.77857 13.8208 9.64143 13.8773 9.46112C14.8151 6.49926 13.3987 3.31187 10.5442 1.96087C7.68982 0.60987 4.25406 1.50071 2.45953 4.05711C0.66501 6.6135 1.05028 10.0683 3.36612 12.1865C5.68195 14.3047 9.23335 14.4508 11.7229 12.5301L13.7519 14.5138C13.9615 14.7178 14.3003 14.7178 14.5098 14.5138C14.7192 14.307 14.7192 13.9739 14.5098 13.767L14.5039 13.7378Z" fill="#4F5665"/>
</svg>
