<svg width="25" height="25" viewBox="0 0 25 25" fill="none" xmlns="http://www.w3.org/2000/svg">
<path d="M18.5 17.75H6.92139C6.74574 17.75 6.57567 17.6884 6.44082 17.5758C6.30597 17.4633 6.2149 17.307 6.18348 17.1342L3.68015 3.36584C3.64873 3.19303 3.55766 3.03673 3.42281 2.92419C3.28796 2.81164 3.11789 2.75 2.94225 2.75H1.25" stroke="#FF8906" stroke-linecap="round" stroke-linejoin="round"/>
<path d="M7.25 21.5C8.28553 21.5 9.125 20.6605 9.125 19.625C9.125 18.5895 8.28553 17.75 7.25 17.75C6.21447 17.75 5.375 18.5895 5.375 19.625C5.375 20.6605 6.21447 21.5 7.25 21.5Z" stroke="#FF8906" stroke-linecap="round" stroke-linejoin="round"/>
<path d="M18.5 21.5C19.5355 21.5 20.375 20.6605 20.375 19.625C20.375 18.5895 19.5355 17.75 18.5 17.75C17.4645 17.75 16.625 18.5895 16.625 19.625C16.625 20.6605 17.4645 21.5 18.5 21.5Z" stroke="#FF8906" stroke-linecap="round" stroke-linejoin="round"/>
<path d="M4.25 6.5H20.6013C20.7112 6.5 20.8197 6.52413 20.9192 6.57069C21.0187 6.61725 21.1068 6.6851 21.1772 6.76944C21.2475 6.85378 21.2986 6.95255 21.3266 7.05878C21.3546 7.165 21.3589 7.27608 21.3392 7.38416L20.112 14.1342C20.0806 14.307 19.9895 14.4633 19.8546 14.5758C19.7198 14.6884 19.5497 14.75 19.3741 14.75H5.75" stroke="#FF8906" stroke-linecap="round" stroke-linejoin="round"/>
</svg>
