<svg width="45" height="45" viewBox="0 0 45 45" fill="none" xmlns="http://www.w3.org/2000/svg">
<path d="M0 4C0 1.79086 1.79086 0 4 0H41C43.2091 0 45 1.79086 45 4V41C45 43.2091 43.2091 45 41 45H4C1.79086 45 0 43.2091 0 41V4Z" fill="#FF8906"/>
<path fill-rule="evenodd" clip-rule="evenodd" d="M19.398 18.3155C19.398 19.871 18.1156 21.1318 16.5322 21.1318C14.9498 21.1318 13.6665 19.871 13.6665 18.3155C13.6665 16.7608 14.9498 15.5 16.5322 15.5C18.1156 15.5 19.398 16.7608 19.398 18.3155ZM29.0776 17.0819C29.7702 17.0819 30.3332 17.635 30.3332 18.3155C30.3332 18.9968 29.7702 19.5499 29.0776 19.5499H23.598C22.9045 19.5499 22.3415 18.9968 22.3415 18.3155C22.3415 17.635 22.9045 17.0819 23.598 17.0819H29.0776ZM14.923 26.2983H20.4026C21.0961 26.2983 21.6591 26.8514 21.6591 27.5327C21.6591 28.2132 21.0961 28.7672 20.4026 28.7672H14.923C14.2295 28.7672 13.6665 28.2132 13.6665 27.5327C13.6665 26.8514 14.2295 26.2983 14.923 26.2983ZM27.4674 30.3148C29.0508 30.3148 30.3332 29.054 30.3332 27.4993C30.3332 25.9438 29.0508 24.683 27.4674 24.683C25.885 24.683 24.6017 25.9438 24.6017 27.4993C24.6017 29.054 25.885 30.3148 27.4674 30.3148Z" fill="#0B0909"/>
</svg>
